# AST/ASF file generated using VICON BodyLanguage
# -----------------------------------------------
:version 1.10
:name VICON
:units
  mass 1.0
  length 0.45
  angle deg
:documentation
   .ast/.asf automatically generated from VICON data using
   VICON BodyBuilder and BodyLanguage model FoxedUp or BRILLIANT.MOD
:root
   order TX TY TZ RX RY RZ
   axis XYZ
   position 0 0 0  
   orientation 0 0 0 
:bonedata
  begin
     id 1 
     name lhipjoint
     direction 0.645897 -0.709066 0.282916 
     length 2.50918 
     axis 0 0 0  XYZ
  end
  begin
     id 2 
     name lfemur
     direction 0.34202 -0.939693 0  
     length 6.85725  
     axis 0 0 20  XYZ
    dof rx ry rz
    limits (-160.0 20.0)
           (-70.0 70.0)
           (-60.0 70.0)
  end
  begin
     id 3 
     name ltibia
     direction 0.34202 -0.939693 0   
     length 8.01778   
     axis 0 0 20   XYZ
    dof rx
    limits (-10.0 170.0)
  end
  begin
     id 4 
     name lfoot
     direction 0.0796011 -0.218702 0.972539   
     length 2.13962   
     axis -90 7.62852e-016 20   XYZ
    dof rx rz
    limits (-45.0 90.0)
           (-70.0 20.0)
  end
  begin
     id 5 
     name ltoes
     direction 1.53548e-011 -4.21881e-011 1   
     length 1.07476   
     axis -90 7.62852e-016 20   XYZ
    dof rx
    limits (-90.0 20.0)
  end
  begin
     id 6 
     name rhipjoint
     direction -0.63101 -0.720537 0.287493   
     length 2.46923  
     axis 0 0 0  XYZ 
  end
  begin
     id 7 
     name rfemur
     direction -0.34202 -0.939693 0   
     length 6.81957   
     axis 0 0 -20   XYZ
    dof rx ry rz
    limits (-160.0 20.0)
           (-70.0 70.0)
           (-70.0 60.0)
  end
  begin
     id 8 
     name rtibia
     direction -0.34202 -0.939693 0   
     length 8.15152   
     axis 0 0 -20   XYZ
    dof rx
    limits (-10.0 170.0)
 end
 begin
     id 9 
     name rfoot
     direction -0.105819 -0.290734 0.950934   
     length 2.14588  
     axis -90 -7.62852e-016 -20   XYZ
    dof rx rz
    limits (-45.0 90.0)
           (-20.0 70.0)
  end
  begin
     id 10 
     name rtoes
     direction -1.53512e-011 -4.22005e-011 1   
     length 1.0703   
     axis -90 -7.62852e-016 -20   XYZ
    dof rx
    limits (-90.0 20.0)
  end
  begin
     id 11 
     name lowerback
     direction 0.0114933 0.999236 0.0373542   
     length 1.91711   
     axis 0 0 0   XYZ
    dof rx ry rz
    limits (-20.0 45.0)
           (-30.0 30.0)
           (-30.0 30.0)
  end
  begin
     id 12 
     name upperback
     direction 0.00911529 0.998099 0.0609554   
     length 1.90888   
     axis 0 0 0   XYZ
    dof rx ry rz
    limits (-20.0 45.0)
           (-30.0 30.0)
           (-30.0 30.0)
  end
  begin
     id 13 
     name thorax
     direction 0.00357322 0.99911 0.0420379   
     length 1.90942   
     axis 0 0 0   XYZ
    dof rx ry rz
    limits (-20.0 45.0)
           (-30.0 30.0)
           (-30.0 30.0)
  end
  begin
     id 14 
     name lowerneck
     direction -0.0589311 0.997882 0.0275448   
     length 1.83956   
     axis 0 0 0   XYZ
    dof rx ry rz
    limits (-20.0 45.0)
           (-30.0 30.0)
           (-30.0 30.0)
  end
  begin
     id 15 
     name upperneck
     direction 0.0362633 0.960055 -0.277453   
     length 1.82031   
     axis 0 0 0   XYZ
    dof rx ry rz
    limits (-20.0 45.0)
           (-30.0 30.0)
           (-30.0 30.0)
  end
  begin
     id 16
     name head
     direction 0.0166719 0.995328 -0.0951042  
     length 1.86084  
     axis 0 0 0   XYZ
    dof rx ry rz
    limits (-20.0 45.0)
           (-30.0 30.0)
           (-30.0 30.0)
  end
  begin
     id 17 
     name lclavicle
     direction 0.90319 0.426238 0.0506919  
     length 3.17828  
     axis 0 0 0   XYZ
    dof ry rz
    limits (-20.0 10.0)
           (0.0 20.0)
  end
  begin
     id 18 
     name lhumerus
     direction 1 -4.48953e-011 6.78797e-028   
     length 5.43592   
     axis 180 -30 -90   XYZ
    dof rx ry rz
    limits (-60.0 90.0)
           (-90.0 90.0)
           (-90.0 90.0)
  end
  begin
     id 19
     name lradius
     direction 1 -4.48969e-011 7.02702e-027   
     length 3.2546   
     axis 180 -30 -90   XYZ
    dof rx
    limits (-10.0 170.0)
  end
  begin
     id 20
     name lwrist
     direction 1 -4.48975e-011 1.29807e-026   
     length 1.6273   
     axis -8.50346e-015 90 90   XYZ
    dof ry
    limits (-180.0 0.0)
 end
  begin
     id 21 
     name lhand
     direction 1 -4.48917e-011 2.59615e-026   
     length 0.498244   
     axis -1.65656e-014 90 90   XYZ
    dof rx rz
    limits (-90.0 90.0)
           (-45.0 45.0)
  end
  begin
     id 22 
     name lfingers
     direction 1 -4.48885e-011 5.1923e-026   
     length 0.401697   
     axis -3.31313e-014 90 90   XYZ
    dof rx
    limits (0.0 90.0)
  end
  begin
     id 23
     name lthumb
     direction 0.707107 -6.34946e-011 0.707107   
     length 0.576759   
     axis -90 45 2.85299e-015   XYZ
    dof rx rz
    limits (-45.0 45.0)
           (-45.0 45.0)
  end
  begin
     id 24 
     name rclavicle
     direction -0.908603 0.391432 0.145676   
     length 3.15477  
     axis 0 0 0   XYZ 
    dof ry rz
    limits (-10.0 20.0)
           (-20.0 0.0)
  end
  begin
     id 25 
     name rhumerus
     direction -1 -4.4898e-011 1.02852e-027  
     length 5.3383   
     axis 180 30 90   XYZ
    dof rx ry rz
    limits (-90.0 60.0)
           (-90.0 90.0)
           (-90.0 90.0)
  end
  begin
     id 26 
     name rradius
     direction -1 -4.48968e-011 7.05567e-027   
     length 3.23148   
     axis 180 30 90   XYZ
    dof rx
    limits (-10.0 170.0)
  end
  begin
     id 27 
     name rwrist
     direction -1 -4.48927e-011 1.29807e-026   
     length 1.61574   
     axis -8.50346e-015 -90 -90   XYZ
    dof ry
    limits (-180.0 0.0)
  end
  begin
     id 28
     name rhand
     direction -1 -4.48905e-011 2.59615e-026   
     length 0.463641   
     axis -1.65656e-014 -90 -90   XYZ
    dof rx rz
    limits (-90.0 90.0)
           (-45.0 45.0)
  end
  begin
     id 29
     name rfingers
     direction -1 -4.49167e-011 5.1923e-026   
     length 0.373799   
     axis -3.31313e-014 -90 -90   XYZ
    dof rx
    limits (0.0 90.0)
  end
  begin
     id 30
     name rthumb
     direction -0.707107 -6.34954e-011 0.707107   
     length 0.536703   
     axis -90 -45 -2.85299e-015   XYZ
    dof rx rz
    limits (-45.0 45.0)
           (-45.0 45.0)
  end
:hierarchy
  begin
    root lhipjoint rhipjoint lowerback
    lhipjoint lfemur
    lfemur ltibia
    ltibia lfoot
    lfoot ltoes
    rhipjoint rfemur
    rfemur rtibia
    rtibia rfoot
    rfoot rtoes
    lowerback upperback
    upperback thorax
    thorax lowerneck lclavicle rclavicle
    lowerneck upperneck
    upperneck head
    lclavicle lhumerus
    lhumerus lradius
    lradius lwrist
    lwrist lhand lthumb
    lhand lfingers
    rclavicle rhumerus
    rhumerus rradius
    rradius rwrist
    rwrist rhand rthumb
    rhand rfingers
  end

#!OML:ASF F:\VICON\USERDATA\INSTALL\rory3\rory3.ASF
:FULLY-SPECIFIED
:DEGREES
29
root 3.83405 17.6163 4.15668 21.6821 -8.234 -4.19168
lowerback -8.87908 -1.22402 4.76475
upperback -13.5413 -1.58702 4.48507
thorax -9.51826 -1.0268 2.16026
lowerneck -4.73289 18.3967 14.56
upperneck 13.7923 23.0446 3.0121
head 6.2728 12.1062 0.675903
rclavicle -4.57205e-015 -1.03368e-014
rhumerus -11.742 -24.2312 26.758
rradius 119.361
rwrist -60.0668
rhand -2.83999 -44.2975
rfingers 7.12502
rthumb 22.8675 -72.9617
lclavicle -4.57205e-015 -1.03368e-014
lhumerus 24.8648 31.0107 -19.4306
lradius 28.4661
lwrist 36.4288
lhand -24.3561 -16.4502
lfingers 7.12502
lthumb 2.13348 13.5188
rfemur -6.41118 10.5942 -1.57885
rtibia 8.97782
rfoot 22.8883 -7.48284
rtoes -39.001
lfemur -23.6477 -7.4683 -20.5741
ltibia 19.9302
lfoot -14.9753 13.7071
ltoes 9.43915
30
root 3.83428 17.6167 4.1605 21.6316 -8.18997 -4.18929
lowerback -8.91779 -1.22664 4.73951
upperback -13.313 -1.6042 4.46983
thorax -9.22914 -1.02991 2.14242
lowerneck -5.72455 18.5028 14.4893
upperneck 14.159 23.003 3.12374
head 6.52762 12.091 0.832473
rclavicle -3.47873e-014 1.11319e-014
rhumerus -11.9703 -24.5724 26.7952
rradius 119.324
rwrist -59.9855
rhand -2.63283 -43.9927
rfingers 7.12502
rthumb 23.0663 -72.6322
lclavicle -3.47873e-014 1.11319e-014
lhumerus 24.8532 31.4891 -19.4139
lradius 28.4198
lwrist 36.3547
lhand -24.3846 -16.3737
lfingers 7.12502
lthumb 2.10592 13.5957
rfemur -6.30946 10.5741 -1.55061
rtibia 8.96416
rfoot 22.9085 -7.4965
rtoes -38.882
lfemur -23.5787 -7.58223 -20.5519
ltibia 19.9273
lfoot -15.0251 13.7396
ltoes 9.6901
31
root 3.83442 17.6163 4.16196 21.5848 -8.13364 -4.19879
lowerback -8.89717 -1.26457 4.81584
upperback -13.5216 -1.64412 4.49566
thorax -9.4871 -1.05907 2.14139
lowerneck -4.62173 18.3724 14.6011
upperneck 13.8353 23.0301 2.98709
head 6.2765 12.1018 0.655413
rclavicle -9.34288e-015 2.22639e-014
rhumerus -11.6751 -24.1482 26.763
rradius 119.44
rwrist -60.0767
rhand -2.16657 -43.811
rfingers 7.12502
rthumb 23.5136 -72.3938
lclavicle -9.34288e-015 2.22639e-014
lhumerus 24.721 30.7607 -19.6327
lradius 28.5256
lwrist 36.7148
lhand -24.1113 -16.3823
lfingers 7.12502
lthumb 2.36986 13.5843
rfemur -6.23414 10.5463 -1.50926
rtibia 8.94286
rfoot 22.8704 -7.51897
rtoes -38.7978
lfemur -23.5142 -7.60021 -20.5353
ltibia 19.9343
lfoot -15.0671 13.6866
ltoes 9.74467
32
root 3.83469 17.615 4.15938 21.5991 -8.12327 -4.20875
lowerback -8.88076 -1.2191 4.75943
upperback -13.2946 -1.59093 4.48469
thorax -9.22972 -1.02369 2.14773
lowerneck -5.93148 18.4793 14.4439
upperneck 14.305 22.929 3.19159
head 6.59218 12.0606 0.877055
rclavicle 1.13307e-014 2.14687e-014
rhumerus -12.0315 -24.4687 26.994
rradius 119.509
rwrist -60.0755
rhand -1.767 -43.6523
rfingers 7.12502
rthumb 23.8969 -72.1855
lclavicle 1.13307e-014 2.14687e-014
lhumerus 24.7446 31.3309 -19.5212
lradius 28.4842
lwrist 36.6601
lhand -24.2244 -16.6664
lfingers 7.12502
lthumb 2.26062 13.3014
rfemur -6.25913 10.5349 -1.50629
rtibia 8.93407
rfoot 22.7774 -7.49592
rtoes -38.592
lfemur -23.534 -7.47582 -20.5546
ltibia 19.9424
lfoot -15.0445 13.5839
ltoes 9.55702
33
root 3.83591 17.6142 4.15911 21.6347 -8.16302 -4.20488
lowerback -8.9608 -1.18158 4.75001
upperback -13.192 -1.55314 4.45629
thorax -9.06492 -1.00369 2.11371
lowerneck -6.41512 18.5112 14.3951
upperneck 14.4466 22.8824 3.25442
head 6.70092 12.0394 0.951434
rclavicle -6.06293e-014 8.5875e-014
rhumerus -12.1854 -24.6018 27.0889
rradius 119.502
rwrist -60.0387
rhand -1.7944 -43.5571
rfingers 7.12502
rthumb 23.8706 -72.0937
lclavicle -6.06293e-014 8.5875e-014
lhumerus 24.8393 31.6966 -19.4005
lradius 28.4288
lwrist 36.5396
lhand -24.0402 -16.7401
lfingers 7.12502
lthumb 2.43851 13.2257
rfemur -6.32052 10.5523 -1.55295
rtibia 8.9832
rfoot 22.5503 -7.28884
rtoes -38.3596
lfemur -23.5745 -7.39533 -20.589
ltibia 19.9407
lfoot -15.0517 13.5507
ltoes 9.49737
34
root 3.83743 17.6156 4.15913 21.6389 -8.2036 -4.21578
lowerback -8.91651 -1.15514 4.76256
upperback -13.2272 -1.514 4.43683
thorax -9.13206 -0.98709 2.08982
lowerneck -6.47731 18.497 14.3975
upperneck 14.57 22.8408 3.32274
head 6.74226 12.0276 0.979782
rclavicle -1.21259e-014 9.54166e-015
rhumerus -12.1726 -24.5619 27.1005
rradius 119.473
rwrist -59.9302
rhand -1.77114 -43.5715
rfingers 7.12502
rthumb 23.8929 -72.1052
lclavicle -1.21259e-014 9.54166e-015
lhumerus 24.7437 31.4552 -19.5802
lradius 28.525
lwrist 36.8603
lhand -23.6109 -16.618
lfingers 7.12502
lthumb 2.85316 13.3427
rfemur -6.40266 10.5885 -1.57358
rtibia 9.07472
rfoot 22.4101 -7.12114
rtoes -38.2537
lfemur -23.5631 -7.4079 -20.5876
ltibia 19.9336
lfoot -15.0592 13.5942
ltoes 9.5419
35
root 3.83817 17.6171 4.15725 21.6232 -8.19701 -4.21642
lowerback -8.84426 -1.1666 4.74294
upperback -13.2512 -1.52077 4.45743
thorax -9.20004 -0.987958 2.1267
lowerneck -6.54778 18.5095 14.3614
upperneck 14.6901 22.8423 3.37241
head 6.78336 12.0333 1.01223
rclavicle 5.76476e-015 -4.92986e-014
rhumerus -12.0922 -24.5806 27.0842
rradius 119.468
rwrist -59.8866
rhand -1.50739 -43.5584
rfingers 7.12502
rthumb 24.1458 -72.0588
lclavicle 5.76476e-015 -4.92986e-014
lhumerus 24.4657 31.0551 -19.9238
lradius 28.6645
lwrist 37.3224
lhand -23.532 -16.5945
lfingers 7.12502
lthumb 2.92934 13.3651
rfemur -6.4657 10.5883 -1.57139
rtibia 9.1442
rfoot 22.5737 -7.24622
rtoes -38.5398
lfemur -23.5474 -7.46691 -20.5731
ltibia 19.9163
lfoot -14.9862 13.6549
ltoes 9.49326
